<?xml version="1.0" encoding="UTF-8" standalone="no"?>
<svg
   xmlns:dc="http://purl.org/dc/elements/1.1/"
   xmlns:cc="http://creativecommons.org/ns#"
   xmlns:rdf="http://www.w3.org/1999/02/22-rdf-syntax-ns#"
   xmlns:svg="http://www.w3.org/2000/svg"
   xmlns="http://www.w3.org/2000/svg"
   xmlns:sodipodi="http://sodipodi.sourceforge.net/DTD/sodipodi-0.dtd"
   xmlns:inkscape="http://www.inkscape.org/namespaces/inkscape"
   version="1.0"
   width="17.208214mm"
   height="10.618233mm"
   id="svg1894"
   sodipodi:docname="Bass_clef_with_note.svg"
   shape-rendering="crispEdges"
   inkscape:version="1.0.2 (e86c870879, 2021-01-15)">
  <metadata
     id="metadata903">
    <rdf:RDF>
      <cc:Work
         rdf:about="">
        <dc:format>image/svg+xml</dc:format>
        <dc:type
           rdf:resource="http://purl.org/dc/dcmitype/StillImage" />
        <dc:title></dc:title>
      </cc:Work>
    </rdf:RDF>
  </metadata>
  <sodipodi:namedview
     pagecolor="#ffffff"
     bordercolor="#666666"
     borderopacity="1"
     objecttolerance="10"
     gridtolerance="10"
     guidetolerance="10"
     inkscape:pageopacity="0"
     inkscape:pageshadow="2"
     inkscape:window-width="1680"
     inkscape:window-height="1013"
     id="namedview901"
     showgrid="false"
     inkscape:zoom="0.87091985"
     inkscape:cx="300.66953"
     inkscape:cy="159.16027"
     inkscape:window-x="1280"
     inkscape:window-y="0"
     inkscape:window-maximized="1"
     inkscape:current-layer="svg1894"
     inkscape:pagecheckerboard="true"
     fit-margin-top="0"
     fit-margin-left="0"
     fit-margin-right="0"
     fit-margin-bottom="0"
     units="mm" />
  <defs
     id="defs1896">
    <style
       type="text/css"
       id="style6" />
  </defs>
  <g
     id="g1941"
     transform="scale(0.08216483)">
    <path
       id="path17"
       style="color:#000000;font-style:normal;font-variant:normal;font-weight:normal;font-stretch:normal;font-size:medium;line-height:normal;font-family:sans-serif;font-variant-ligatures:normal;font-variant-position:normal;font-variant-caps:normal;font-variant-numeric:normal;font-variant-alternates:normal;font-variant-east-asian:normal;font-feature-settings:normal;font-variation-settings:normal;text-indent:0;text-align:start;text-decoration:none;text-decoration-line:none;text-decoration-style:solid;text-decoration-color:#000000;letter-spacing:normal;word-spacing:normal;text-transform:none;writing-mode:lr-tb;direction:ltr;text-orientation:mixed;dominant-baseline:auto;baseline-shift:baseline;text-anchor:start;white-space:normal;shape-padding:0;shape-margin:0;inline-size:0;clip-rule:nonzero;display:inline;overflow:visible;visibility:visible;opacity:1;isolation:auto;mix-blend-mode:normal;color-interpolation:sRGB;color-interpolation-filters:linearRGB;solid-color:#000000;solid-opacity:1;vector-effect:none;fill:#131516;fill-opacity:1;fill-rule:evenodd;stroke:none;stroke-linecap:butt;stroke-linejoin:miter;stroke-miterlimit:4;stroke-dasharray:none;stroke-dashoffset:0;stroke-opacity:1;color-rendering:auto;image-rendering:auto;shape-rendering:auto;text-rendering:auto;enable-background:accumulate;stop-color:#000000;stop-opacity:1"
       d="m 0,0 v 8.43164 h 129.75781 c 13.75237,-3.66557 27.64012,-5.43555 41.71289,-5.43555 12.67606,0 25.03383,1.8015 36.98047,5.43555 H 791.5664 V 0 Z m 171.4707,6.77539 c -7.71721,0 -15.36936,0.54811 -22.97266,1.65625 h 43.37891 C 185.18843,7.32762 178.38302,6.77539 171.4707,6.77539 Z M 0,120 v 8.43164 H 46.476562 C 45.255231,125.73978 44.255606,122.933 43.498047,120 Z m 47.388672,0 c 0.816513,2.94992 1.878506,5.76173 3.21289,8.43164 h 98.156248 c 1.01504,-2.7381 1.71184,-5.54951 2.07227,-8.43164 z m 107.248048,0 c -0.32826,2.875 -0.95678,5.68968 -1.8711,8.43164 h 75.5 c 0.0788,-1.43621 0.14795,-2.86874 0.19531,-4.29297 -1.6e-4,-1.38572 -0.0199,-2.76384 -0.0488,-4.13867 z m 77.55468,0 c 0.0285,1.38277 0.0488,2.76933 0.0488,4.16211 v 0.0312 0.0312 c -0.0462,1.39633 -0.11176,2.79977 -0.1875,4.20703 h 65.21094 c -0.0402,-2.83804 -0.17873,-5.64849 -0.41602,-8.43164 z m 68.44727,0 c 0.23091,2.78528 0.36515,5.59594 0.4043,8.43164 h 184.90039 c 0.2291,-2.86768 0.72094,-5.68303 1.46093,-8.43164 z m 188.73047,0 c -0.0297,0.10562 -0.0688,0.20864 -0.0977,0.31445 -0.52186,1.91116 -0.92053,3.85319 -1.1875,5.82422 -0.10291,0.7598 -0.18055,1.52502 -0.24414,2.29297 h 158.86914 c -0.0639,-0.76792 -0.14123,-1.53321 -0.24414,-2.29297 -0.26697,-1.97103 -0.66369,-3.91306 -1.18555,-5.82422 -0.0289,-0.10581 -0.068,-0.20883 -0.0976,-0.31445 z m 157.77734,0 c 0.74,2.7486 1.23183,5.56397 1.46094,8.43164 H 791.5664 V 120 Z M 0,240 v 8.43164 h 188.24804 c 1.70174,-2.77092 3.35016,-5.58356 4.95313,-8.43164 z m 197.52539,0 c -1.57287,2.84798 -3.19564,5.65789 -4.86524,8.43164 h 58.0918 c 2.30791,-2.78198 4.58611,-5.58613 6.80664,-8.43164 z m 64.80273,0 c -0.48501,0.637 -0.9649,1.27512 -1.45898,1.91016 -1.70602,2.19272 -3.4381,4.36615 -5.19532,6.52148 H 485.79101 V 240 Z m 225.35352,0 v 8.43164 h 6.40625 V 240 Z m 8.29492,0 v 8.43164 H 791.5664 V 240 Z M 0,360 v 8.43164 H 57.308594 C 61.610503,365.49889 65.736867,362.677 69.630859,360 Z m 76.304687,0 c -3.783333,2.6106 -8.11656,5.56387 -12.3125,8.43164 h 25.69336 C 95.114781,365.54879 100.39592,362.72094 105.39258,360 Z m 36.986323,0 c -4.94587,2.7258 -10.12243,5.5371 -15.521477,8.43164 H 485.79101 V 360 Z m 374.39063,0 v 8.43164 h 6.40625 V 360 Z m 8.29492,0 v 8.43164 H 791.5664 V 360 Z M 0,480 v 8.43164 H 791.5664 V 480 Z" />
    <path
       id="path1877"
       style="color:#000000;font-style:normal;font-variant:normal;font-weight:normal;font-stretch:normal;font-size:medium;line-height:normal;font-family:sans-serif;font-variant-ligatures:normal;font-variant-position:normal;font-variant-caps:normal;font-variant-numeric:normal;font-variant-alternates:normal;font-variant-east-asian:normal;font-feature-settings:normal;font-variation-settings:normal;text-indent:0;text-align:start;text-decoration:none;text-decoration-line:none;text-decoration-style:solid;text-decoration-color:#000000;letter-spacing:normal;word-spacing:normal;text-transform:none;writing-mode:lr-tb;direction:ltr;text-orientation:mixed;dominant-baseline:auto;baseline-shift:baseline;text-anchor:start;white-space:normal;shape-padding:0;shape-margin:0;inline-size:0;clip-rule:nonzero;display:inline;overflow:visible;visibility:visible;isolation:auto;mix-blend-mode:normal;color-interpolation:sRGB;color-interpolation-filters:linearRGB;solid-color:#000000;solid-opacity:1;vector-effect:none;fill:#000000;fill-opacity:1;fill-rule:nonzero;stroke:none;stroke-width:3.77953;stroke-linecap:butt;stroke-linejoin:miter;stroke-miterlimit:4;stroke-dasharray:none;stroke-dashoffset:0;stroke-opacity:1;color-rendering:auto;image-rendering:auto;shape-rendering:auto;text-rendering:auto;enable-background:accumulate;stop-color:#000000"
       d="m 567.27539,72.9082 c -2.76321,2e-5 -5.49327,0.1047 -8.1836,0.31055 -2.69032,0.20585 -5.34153,0.51106 -7.94531,0.91211 -2.60377,0.40104 -5.1605,0.89879 -7.66406,1.48437 -2.50356,0.58559 -4.95407,1.26005 -7.34375,2.01953 -2.38968,0.75949 -4.71834,1.60267 -6.98047,2.5254 -2.26213,0.92272 -4.45721,1.92467 -6.57812,3 -2.12092,1.07532 -4.16873,2.22413 -6.13477,3.4414 -1.96604,1.21727 -3.85094,2.50299 -5.64844,3.85156 -1.79749,1.34859 -3.506,2.75807 -5.12109,4.22461 -1.61509,1.46655 -3.13604,2.98963 -4.55664,4.56446 -1.42061,1.57483 -2.74104,3.20156 -3.95508,4.875 -1.21404,1.67343 -2.32102,3.39389 -3.31641,5.15625 -0.99539,1.76235 -1.87986,3.5666 -2.64453,5.4082 -0.76466,1.8416 -1.40978,3.72166 -1.93164,5.63281 -0.52186,1.91116 -0.92053,3.85319 -1.1875,5.82422 -0.26697,1.97104 -0.40234,3.97096 -0.40234,5.99219 v 344.41601 h 6.40625 V 155.66406 l 3.40039,4.63477 c 1.67995,2.27696 3.55893,4.47011 5.61914,6.56445 2.06021,2.09434 4.30235,4.09008 6.70898,5.97266 2.40664,1.88257 4.97804,3.65325 7.69727,5.29492 2.71923,1.64167 5.586,3.15572 8.58398,4.52734 2.99799,1.37162 6.12623,2.59945 9.36914,3.67188 3.24292,1.07243 6.60068,1.98832 10.05469,2.73242 3.45401,0.7441 7.00545,1.31651 10.63672,1.70312 3.63127,0.38662 7.34249,0.5879 11.11719,0.5879 2.7632,1e-5 5.49327,-0.10667 8.18359,-0.3125 2.69032,-0.20584 5.34154,-0.51108 7.94531,-0.91211 2.60378,-0.40104 5.16051,-0.89684 7.66407,-1.48243 2.50356,-0.58558 4.95407,-1.26004 7.34375,-2.01953 2.38968,-0.75948 4.71833,-1.60461 6.98047,-2.52734 2.26213,-0.92274 4.4572,-1.92467 6.57812,-3 2.12092,-1.07533 4.16677,-2.22413 6.13281,-3.44141 1.96604,-1.21727 3.85094,-2.50299 5.64844,-3.85156 1.7975,-1.34858 3.50796,-2.75807 5.12305,-4.22461 1.61509,-1.46654 3.13603,-2.98963 4.55664,-4.56445 1.4206,-1.57483 2.74104,-3.20158 3.95508,-4.875 1.21403,-1.67343 2.32101,-3.3939 3.3164,-5.15625 0.99539,-1.76235 1.87792,-3.56661 2.64258,-5.40821 0.76466,-1.84159 1.41174,-3.71969 1.93359,-5.63086 0.52186,-1.91116 0.91858,-3.85512 1.18555,-5.82617 0.26697,-1.97105 0.4043,-3.96897 0.4043,-5.99023 0,-2.02122 -0.13733,-4.02116 -0.4043,-5.99219 -0.26697,-1.97103 -0.66369,-3.91306 -1.18555,-5.82422 -0.52185,-1.91115 -1.16893,-3.79121 -1.93359,-5.63281 -0.76466,-1.8416 -1.64719,-3.64584 -2.64258,-5.4082 -0.99539,-1.76236 -2.10237,-3.48282 -3.3164,-5.15625 -1.21404,-1.67344 -2.53448,-3.30017 -3.95508,-4.875 -1.42061,-1.57484 -2.94155,-3.09791 -4.55664,-4.56446 -1.61509,-1.46655 -3.32555,-2.87602 -5.12305,-4.22461 -1.7975,-1.34857 -3.6824,-2.63429 -5.64844,-3.85156 -1.96604,-1.21727 -4.01189,-2.36608 -6.13281,-3.4414 -2.12092,-1.07533 -4.31599,-2.07728 -6.57812,-3 -2.26214,-0.92273 -4.59079,-1.76591 -6.98047,-2.5254 -2.38968,-0.75948 -4.84019,-1.43394 -7.34375,-2.01953 -2.50356,-0.58558 -5.06029,-1.08333 -7.66407,-1.48437 -2.60377,-0.40105 -5.25499,-0.70626 -7.94531,-0.91211 -2.69032,-0.20585 -5.42039,-0.31053 -8.18359,-0.31055 z" />
    <path
       style="color:#000000;font-style:normal;font-variant:normal;font-weight:normal;font-stretch:normal;font-size:medium;line-height:normal;font-family:sans-serif;font-variant-ligatures:normal;font-variant-position:normal;font-variant-caps:normal;font-variant-numeric:normal;font-variant-alternates:normal;font-variant-east-asian:normal;font-feature-settings:normal;font-variation-settings:normal;text-indent:0;text-align:start;text-decoration:none;text-decoration-line:none;text-decoration-style:solid;text-decoration-color:#000000;letter-spacing:normal;word-spacing:normal;text-transform:none;writing-mode:lr-tb;direction:ltr;text-orientation:mixed;dominant-baseline:auto;baseline-shift:baseline;text-anchor:start;white-space:normal;shape-padding:0;shape-margin:0;inline-size:0;clip-rule:nonzero;display:inline;overflow:visible;visibility:visible;isolation:auto;mix-blend-mode:normal;color-interpolation:sRGB;color-interpolation-filters:linearRGB;solid-color:#000000;solid-opacity:1;vector-effect:none;fill:#000000;fill-opacity:1;fill-rule:nonzero;stroke:none;stroke-width:3.77953;stroke-linecap:butt;stroke-linejoin:miter;stroke-miterlimit:4;stroke-dasharray:none;stroke-dashoffset:0;stroke-opacity:1;color-rendering:auto;image-rendering:auto;shape-rendering:auto;text-rendering:auto;enable-background:accumulate;stop-color:#000000"
       d="M 31.319582,388.34692 C 64.0769,366.22815 88.54123,349.48403 104.29791,337.90786 c 15.7567,-11.36948 32.34268,-25.63298 49.34332,-42.58383 17.00063,-16.95083 31.30604,-36.17556 42.91623,-57.46746 9.1223,-15.71054 17.00064,-33.90167 23.42771,-54.57344 6.42708,-20.46503 9.74426,-40.3099 10.36625,-59.12119 0,-17.57101 -2.28059,-34.31511 -7.04904,-50.02566 C 218.74121,58.21904 210.86288,45.19583 199.66733,34.65325 188.4718,24.31736 173.95905,19.14944 155.9218,19.14944 c -17.41529,0 -33.79395,3.51419 -49.13598,10.33586 -15.134717,7.0284 -25.915609,18.19116 -31.928018,33.90168 0,1.44702 -0.829305,3.30747 -2.073252,5.9948 0.414642,3.3075 2.073252,5.7881 5.183125,7.64855 3.109873,1.86047 5.805083,2.68733 8.292988,2.68733 1.243946,0 4.768472,-0.62016 10.15891,-1.86045 5.597767,-1.24031 10.158927,-2.06718 13.890757,-2.06718 10.98821,0 20.73249,3.92763 29.64746,11.57617 8.70765,7.64855 13.06145,16.95085 13.06145,27.90688 0,7.85526 -2.28056,15.2971 -6.63438,22.11877 -4.35382,6.82169 -10.36625,12.40305 -18.03726,16.33069 -7.67102,4.13435 -16.17133,5.99479 -25.29363,5.99479 -16.585992,0 -30.684072,-4.96122 -42.294269,-15.09036 -11.402871,-10.33589 -17.207964,-23.35909 -17.207964,-39.68976 0,-20.87848 6.427082,-38.86291 19.07389,-54.16 C 75.479771,35.48013 91.651103,24.11065 111.55427,16.4621 131.25014,8.60684 151.15333,4.88592 171.47116,4.88592 c 22.18375,0 43.3309,5.58137 63.02676,16.95083 19.90317,11.16275 35.45254,26.66658 47.06272,45.8913 11.61019,19.43144 17.6226,40.1032 17.6226,62.42868 0,39.68978 -13.26877,76.48549 -39.80635,110.59389 -26.53759,34.10838 -59.2949,63.66898 -98.47929,88.88853 -26.12294,17.15754 -68.417192,40.30991 -126.675482,69.45708 z M 319.29376,68.55493 c 0,-7.44185 2.69522,-13.64337 8.08568,-18.60459 5.18311,-5.16795 11.61018,-7.64855 19.2812,-7.64855 6.63441,0 12.85413,2.89404 18.45191,8.47542 5.59776,5.37466 8.293,11.7829 8.293,18.8113 0,7.44182 -2.90255,13.85007 -8.293,19.018 -5.80509,4.96123 -12.23216,7.44184 -19.48854,7.44184 -7.67102,0 -13.89077,-2.48061 -18.86655,-8.06199 -4.9758,-5.37466 -7.4637,-11.7829 -7.4637,-19.43143 z m 0,108.31996 c 0,-7.44183 2.69522,-13.85008 7.67102,-18.81128 5.18312,-5.16794 11.61018,-7.64855 19.69586,-7.64855 6.63441,0 12.64682,2.68732 18.45191,8.2687 5.39045,5.58138 8.293,11.57618 8.293,18.19113 0,8.06199 -2.69524,14.47024 -7.87836,19.63817 -5.39044,5.16793 -11.61017,7.85526 -18.86655,7.85526 -8.08568,0 -14.51274,-2.68733 -19.69586,-7.64854 -4.9758,-4.96122 -7.67102,-11.57618 -7.67102,-19.84489 z"
       id="path1871" />
  </g>
</svg>
