<?xml version="1.0" encoding="UTF-8" standalone="no"?>
<svg
   xmlns:dc="http://purl.org/dc/elements/1.1/"
   xmlns:cc="http://creativecommons.org/ns#"
   xmlns:rdf="http://www.w3.org/1999/02/22-rdf-syntax-ns#"
   xmlns:svg="http://www.w3.org/2000/svg"
   xmlns="http://www.w3.org/2000/svg"
   xmlns:sodipodi="http://sodipodi.sourceforge.net/DTD/sodipodi-0.dtd"
   xmlns:inkscape="http://www.inkscape.org/namespaces/inkscape"
   width="1184.2152"
   height="208.81113"
   viewBox="0 0 313.32392 55.247624"
   version="1.1"
   id="svg50"
   sodipodi:docname="HDMI.svg"
   inkscape:version="1.0.2 (e86c870879, 2021-01-15)">
  <metadata
     id="metadata56">
    <rdf:RDF>
      <cc:Work
         rdf:about="">
        <dc:format>image/svg+xml</dc:format>
        <dc:type
           rdf:resource="http://purl.org/dc/dcmitype/StillImage" />
        <dc:title></dc:title>
      </cc:Work>
    </rdf:RDF>
  </metadata>
  <defs
     id="defs54" />
  <sodipodi:namedview
     pagecolor="#ffffff"
     bordercolor="#666666"
     borderopacity="1"
     objecttolerance="10"
     gridtolerance="10"
     guidetolerance="10"
     inkscape:pageopacity="0"
     inkscape:pageshadow="2"
     inkscape:window-width="1680"
     inkscape:window-height="1013"
     id="namedview52"
     showgrid="false"
     inkscape:zoom="0.44648438"
     inkscape:cx="978.00216"
     inkscape:cy="71.72633"
     inkscape:window-x="1280"
     inkscape:window-y="0"
     inkscape:window-maximized="1"
     inkscape:current-layer="svg50"
     fit-margin-top="0"
     fit-margin-left="0"
     fit-margin-right="0"
     fit-margin-bottom="0" />
  <style
     id="style2"><![CDATA[.B{clip-path:none}]]></style>
  <path
     d="m 291.72741,1.1423162e-4 h 21.59651 V 55.224808 h -21.59651 z"
     class="B"
     clip-path="none"
     id="path4"
     sodipodi:nodetypes="ccccc"
     style="stroke-width:0.232721" />
  <path
     d="M 180.40457,-2.6701838e-4 V 55.247733 h 20.933 v -41.471 h 19.909 v 41.471 h 20.817 v -41.471 h 19.921 v 41.471 h 20.898 l 0.012,-40.726 c 0,-4.026 -1.42,-7.459 -4.236,-10.286 -2.828,-2.816 -6.225,-4.23500001838 -10.193,-4.23500001838 z m -90.038997,0 -0.093,13.74200001838 h 60.495997 v 27.74 h -39.493 l -0.093,-18.932 H 90.272573 l 0.093,32.674 h 66.790997 c 3.98,0 7.389,-1.419 10.24,-4.235 2.851,-2.827 4.282,-6.248 4.282,-10.286 l 0.001,-26.181 c 0,-4.038 -1.432,-7.459 -4.282,-10.286 -2.851,-2.816 -6.26,-4.23500001838 -10.24,-4.23500001838 z"
     class="B"
     clip-path="none"
     id="path6" />
  <path
     d="M 81.231265,1.1423162e-4 V 55.224808 H 59.285675 V 35.431886 H 21.608145 V 55.224808 H 0 V 1.1423162e-4 H 21.608145 V 22.550779 h 37.67753 V 1.1423162e-4 Z"
     class="B"
     clip-path="none"
     id="path8"
     sodipodi:nodetypes="ccccccccccccc"
     style="stroke-width:0.232721" />
</svg>
