<?xml version="1.0" encoding="UTF-8" standalone="no"?>
<svg
   xmlns:dc="http://purl.org/dc/elements/1.1/"
   xmlns:cc="http://creativecommons.org/ns#"
   xmlns:rdf="http://www.w3.org/1999/02/22-rdf-syntax-ns#"
   xmlns:svg="http://www.w3.org/2000/svg"
   xmlns="http://www.w3.org/2000/svg"
   xmlns:sodipodi="http://sodipodi.sourceforge.net/DTD/sodipodi-0.dtd"
   xmlns:inkscape="http://www.inkscape.org/namespaces/inkscape"
   version="1.1"
   id="svg3312"
   inkscape:output_extension="org.inkscape.output.svg.inkscape"
   inkscape:version="1.0.2 (e86c870879, 2021-01-15)"
   sodipodi:docname="micro-sd.svg"
   sodipodi:version="0.32"
   x="0px"
   y="0px"
   viewBox="0 0 531 250"
   enable-background="new 0 0 531 250"
   xml:space="preserve"
   width="566.40002"
   height="266.66666"><metadata
   id="metadata29"><rdf:RDF><cc:Work
       rdf:about=""><dc:format>image/svg+xml</dc:format><dc:type
         rdf:resource="http://purl.org/dc/dcmitype/StillImage" /></cc:Work></rdf:RDF></metadata><defs
   id="defs27" /><sodipodi:namedview
   pagecolor="#ffffff"
   bordercolor="#666666"
   borderopacity="1"
   objecttolerance="10"
   gridtolerance="10"
   guidetolerance="10"
   inkscape:pageopacity="0"
   inkscape:pageshadow="2"
   inkscape:window-width="1680"
   inkscape:window-height="1013"
   id="namedview25"
   showgrid="false"
   inkscape:zoom="1.0762712"
   inkscape:cx="192.5719"
   inkscape:cy="276.72228"
   inkscape:window-x="1280"
   inkscape:window-y="0"
   inkscape:window-maximized="1"
   inkscape:current-layer="svg3312" />
<g
   id="g22">
	<path
   d="m 179.7,209.8 -13,37.7 c 0,0 39.9,2.2 63.1,2.2 23.2,0 105.1,6.5 101.5,-37.7 -3.6,-44.2 -84.4,-35.1 -84.1,-52.2 0.3,-11.1 105.1,-6.6 105.1,-6.6 l 8.7,-21.7 c 0,0 -157.3,-11.6 -156.6,31.9 0.5,33.3 67.6,34.7 66.7,46.4 -0.6,8.2 -37,5.8 -59.4,3.6 -22.5,-2.2 -32,-3.6 -32,-3.6"
   id="path2" />
	<path
   d="m 442.1,134.4 c -16.2,-2 -36,-3.4 -60.1,-2.9 l -7.4,20.9 c 2.9,0.1 18.9,0.5 33.4,3.7 z"
   id="path4" />
	<path
   d="m 485.6,143.8 c -4.5,-1.5 -10,-3.1 -16.6,-4.7 L 420.9,160 c 2.3,1 4.4,2.2 6.1,3.5 z"
   id="path6" />
	<path
   d="m 501.6,150.6 -70.3,18 c 0.6,1.2 1,2.6 1,4.1 0,19.7 -30.4,26.1 -75.6,29.6 v 0.2 L 340,249.6 c 0,0 163.8,3 189.2,-58.7 9.7,-23.7 -22.6,-38.2 -27.6,-40.3"
   id="path8" />
	<path
   d="M 63,190.2 V 47 C 63,41 58.6,35.8 49.6,35.8 40.7,35.8 36.2,41 36.2,47 V 190.2 H 0 V 39 C 0,16.4 22.8,2.2 48,2.2 60,2.2 72.2,8 80.4,15.8 88.6,8 100.9,2.2 112.8,2.2 c 25.2,0 48,14.2 48,36.7 V 190.1 H 124.6 V 47 c 0,-6 -4.4,-11.2 -13.4,-11.2 -9,0 -13.4,5.2 -13.4,11.2 v 143.2 z"
   id="path10" />
	<path
   d="m 311.3,16.9 c 0,15.7 -14.7,16.5 -14.7,16.5 h -20.2 c -18.2,0 -27.8,11 -27.8,25.4 0,14.4 9.6,25.6 27.8,25.6 h 20.2 c 0,0 14.7,2.3 14.7,15.4 0,13.1 -14.7,17.1 -14.7,17.1 H 275.1 C 243.2,116.9 211,95.6 211,58.8 211,22.2 243.2,0.7 275.1,0.7 h 21.5 c 0,0.1 14.7,0.5 14.7,16.2"
   id="path12" />
	<path
   d="m 476.4,0.7 c 40.7,0 54.6,27.8 54.6,58.7 0,31 -14.1,57.4 -54.6,57.4 -40,0 -54.8,-26.3 -54.8,-57.3 0,-31 14.1,-58.8 54.8,-58.8 m 0,85.4 c 18.1,0 23.7,-8.4 23.7,-26.6 0,-18.1 -5.6,-28.4 -23.4,-28.4 -18.6,0 -24.5,10.7 -24.5,28.4 0,17.9 6.1,26.6 24.2,26.6"
   id="path14" />
	<path
   d="m 317.2,117.4 h 33.4 V 42.2 c 0,0 -0.6,-13.6 14.9,-13.6 13.3,0 17.7,6.5 17.7,6.5 v 10 c 0,0 3,8.5 17.5,8.5 14.5,0 16.3,-8.3 16.3,-8.3 V 34.7 C 417,34.7 417.4,0 370.7,0 316.4,0 317.2,37.3 317.2,37.3 Z"
   id="path16" />
	<path
   d="m 186.8,36.6 c 10.3,0 18.3,-7.3 18.3,-17.2 0,-9.8 -8,-17.2 -18.3,-17.2 -10.2,0 -18.3,7.3 -18.3,17.2 0,9.8 8,17.2 18.3,17.2"
   id="path18" />
	<path
   d="m 187.7,40.2 c -14.4,0 -18.6,9.6 -18.6,9.6 v 70 h 35.1 v -70 c 0,-0.1 -3.4,-9.6 -16.5,-9.6"
   id="path20" />
</g>
</svg>
