<?xml version="1.0" encoding="UTF-8" standalone="no"?>
<svg
   xmlns:dc="http://purl.org/dc/elements/1.1/"
   xmlns:cc="http://creativecommons.org/ns#"
   xmlns:rdf="http://www.w3.org/1999/02/22-rdf-syntax-ns#"
   xmlns:svg="http://www.w3.org/2000/svg"
   xmlns="http://www.w3.org/2000/svg"
   xmlns:sodipodi="http://sodipodi.sourceforge.net/DTD/sodipodi-0.dtd"
   xmlns:inkscape="http://www.inkscape.org/namespaces/inkscape"
   width="26.911057"
   height="32.00053"
   viewBox="0 0 26.911057 32.00053"
   style="color:currentColor"
   class="h-full w-full"
   version="1.1"
   id="svg12"
   sodipodi:docname="music-note-solid.svg"
   inkscape:version="1.0.2 (e86c870879, 2021-01-15)">
  <metadata
     id="metadata18">
    <rdf:RDF>
      <cc:Work
         rdf:about="">
        <dc:format>image/svg+xml</dc:format>
        <dc:type
           rdf:resource="http://purl.org/dc/dcmitype/StillImage" />
        <dc:title></dc:title>
      </cc:Work>
    </rdf:RDF>
  </metadata>
  <defs
     id="defs16" />
  <sodipodi:namedview
     pagecolor="#ffffff"
     bordercolor="#666666"
     borderopacity="1"
     objecttolerance="10"
     gridtolerance="10"
     guidetolerance="10"
     inkscape:pageopacity="0"
     inkscape:pageshadow="2"
     inkscape:window-width="1680"
     inkscape:window-height="1013"
     id="namedview14"
     showgrid="false"
     inkscape:zoom="5.8828125"
     inkscape:cx="20.856475"
     inkscape:cy="22.923793"
     inkscape:window-x="1280"
     inkscape:window-y="0"
     inkscape:window-maximized="1"
     inkscape:current-layer="svg12"
     fit-margin-top="0"
     fit-margin-left="0"
     fit-margin-right="0"
     fit-margin-bottom="0" />
  <path
     fill="currentColor"
     d="m 26.092001,4.16 c -1.92,-3.3 -10.6,-4 -11.58,-4.09 l -1.1,-0.07 v 20.29 a 5.88,5.88 0 0 0 -0.81,-0.55 8.33,8.33 0 0 0 -6.5299997,-0.41 c -4.1200005,1.33 -6.77000054,5.13 -5.91000054,8.47 a 5.33,5.33 0 0 0 2.66000004,3.32 7.48,7.48 0 0 0 3.6100005,0.88 9.54,9.54 0 0 0 2.98,-0.48 C 13.112001,30.33 15.612001,27.15 15.472001,24.1 V 6.49 c 1,0.12 2.37,0.33 3.82,0.64 a 11.17,11.17 0 0 1 4.06,1.4599999 c 1,0.66 0.38,1.9000001 0.33,2.0000001 a 11.8,11.8 0 0 1 -1.66,2 1,1 0 0 0 1.33,1.49 c 0.21,-0.23 5.56,-5.0800001 2.74,-9.92 z"
     class="clr-i-solid clr-i-solid-path-1"
     id="path4"
     style="stroke:none" />
</svg>
