<?xml version="1.0" encoding="UTF-8" standalone="no"?>
<svg
   xmlns:dc="http://purl.org/dc/elements/1.1/"
   xmlns:cc="http://creativecommons.org/ns#"
   xmlns:rdf="http://www.w3.org/1999/02/22-rdf-syntax-ns#"
   xmlns:svg="http://www.w3.org/2000/svg"
   xmlns="http://www.w3.org/2000/svg"
   xmlns:sodipodi="http://sodipodi.sourceforge.net/DTD/sodipodi-0.dtd"
   xmlns:inkscape="http://www.inkscape.org/namespaces/inkscape"
   width="512"
   height="512"
   viewBox="0 0 512 512"
   style="color:currentColor"
   class="h-full w-full"
   version="1.1"
   id="svg709"
   sodipodi:docname="usb-symbol.svg"
   inkscape:version="1.0.2 (e86c870879, 2021-01-15)">
  <metadata
     id="metadata715">
    <rdf:RDF>
      <cc:Work
         rdf:about="">
        <dc:format>image/svg+xml</dc:format>
        <dc:type
           rdf:resource="http://purl.org/dc/dcmitype/StillImage" />
      </cc:Work>
    </rdf:RDF>
  </metadata>
  <defs
     id="defs713" />
  <sodipodi:namedview
     pagecolor="#ffffff"
     bordercolor="#666666"
     borderopacity="1"
     objecttolerance="10"
     gridtolerance="10"
     guidetolerance="10"
     inkscape:pageopacity="0"
     inkscape:pageshadow="2"
     inkscape:window-width="1280"
     inkscape:window-height="960"
     id="namedview711"
     showgrid="false"
     inkscape:zoom="1.0938058"
     inkscape:cx="215.32905"
     inkscape:cy="201.57823"
     inkscape:window-x="0"
     inkscape:window-y="27"
     inkscape:window-maximized="1"
     inkscape:current-layer="svg709" />
  <svg
     width="256px"
     height="256px"
     viewBox="0 0 16 16"
     fill="currentColor"
     x="128"
     y="128"
     role="img"
     style="display:inline-block;vertical-align:middle"
     version="1.1"
     id="svg707">
    <g
       fill="currentColor"
       id="g705">
      <path
         fill="currentColor"
         d="m7.792.312l-1.533 2.3A.25.25 0 0 0 6.467 3H7.5v7.319a2.5 2.5 0 0 0-.515-.298L5.909 9.56A1.5 1.5 0 0 1 5 8.18v-.266a1.5 1.5 0 1 0-1 0v.266a2.5 2.5 0 0 0 1.515 2.298l1.076.461a1.5 1.5 0 0 1 .888 1.129a2.001 2.001 0 1 0 1.021-.006v-.902a1.5 1.5 0 0 1 .756-1.303l1.484-.848A2.5 2.5 0 0 0 11.995 7h.755a.25.25 0 0 0 .25-.25v-2.5a.25.25 0 0 0-.25-.25h-2.5a.25.25 0 0 0-.25.25v2.5c0 .138.112.25.25.25h.741a1.5 1.5 0 0 1-.747 1.142L8.76 8.99a2.584 2.584 0 0 0-.26.17V3h1.033a.25.25 0 0 0 .208-.389L8.208.312a.25.25 0 0 0-.416 0Z"
         id="path703" />
    </g>
  </svg>
</svg>
